<svg height="588.5" viewBox="0 0 867.93857 588.5" width="867.93857"
    xmlns="http://www.w3.org/2000/svg">
    <path
        d="m925.055 325.47994h-116.03359c-15.70477-42.51261-22.52583-82.0414 0-111.71322a58.01672 58.01672 0 0 1 58.01672-58.01672h.00012a57.94434 57.94434 0 0 1 47.293 24.40356c9.16871 12.877 11.00592 29.47655 5.74836 44.38425-9.37031 26.56937-3.64929 62.824 4.97539 100.94213z"
        fill="#2f2e41" transform="translate(-166.03071 -155.75)" />
    <path
        d="m986.33673 744.25a15.70205 15.70205 0 0 1 -15.0077-11.0843l-4.78036-15.53616a23.1288 23.1288 0 0 1 -.61965-11.10129l3.25577-17.209h22.83639l9.47609 35.14049a15.70206 15.70206 0 0 1 -15.16054 19.79026z"
        fill="#2f2e41" transform="translate(-166.03071 -155.75)" />
    <path
        d="m819.952 744.25a15.70206 15.70206 0 0 0 15.0077-11.0843l4.78035-15.53616a23.12867 23.12867 0 0 0 .61965-11.10129l-3.25576-17.209h-22.83633l-9.47609 35.14049a15.70206 15.70206 0 0 0 15.16048 19.79026z"
        fill="#2f2e41" transform="translate(-166.03071 -155.75)" />
    <path
        d="m993.87275 691.17082h-25.3052l-109.86155-208.61353-20.268 208.61353h-22.31879c-11.45007-131.36776-39.30814-256.49986 0-303.6623l91.96277 8.6408z"
        fill="#2f2e41" transform="translate(-166.03071 -155.75)" />
    <circle cx="697.92148" cy="59.86838" fill="#9f616a" r="30.85999" />
    <g transform="translate(-166.03071 -155.75)">
        <path
            d="m907.46478 334.42934h-68.50918l-11.7268-54.31358c22.75118-6.72118 28.17526-22.35365 23.4536-43.204l37.032-2.4688c2.09887 16.7954 5.93889 32.4559 29.62559 35.18039z"
            fill="#9f616a" />
        <path
            d="m907.46478 402.32132c-38.8692 14.75815-70.48976 14.29779-92.58-6.172 9.96854-32.87311 10.56517-73.35384 6.172-117.88516l12.344-5.5548 4.3204 39.50079 61.10278-3.086 13.5784-43.204 13.57839 3.086c1.04079 53.56676-2.16741 101.75614-18.51597 133.31517z"
            fill="#e6e6e6" />
        <path
            d="m943.26236 468.97889 7.25707 23.58547a12.77544 12.77544 0 0 1 -12.2105 16.53252 12.77544 12.77544 0 0 1 -12.70628-14.103l2.84695-27.24942-11.7268-92.58 8.6408-40.73519h21.602z"
            fill="#9f616a" />
        <path
            d="m770.39935 464.07329-12.75316 21.12571a12.77544 12.77544 0 0 0 7.843 18.99758 12.77544 12.77544 0 0 0 15.74359-10.60578l3.83732-27.12768 33.79955-86.98367 6.81613-41.65553-26.29294-5.19141z"
            fill="#9f616a" />
        <path
            d="m962.39556 339.36694-40.73519-.6172v-70.978l6.27186.91465a29.98433 29.98433 0 0 1 25.52968 26.906z"
            fill="#e6e6e6" />
        <path
            d="m788.34522 346.77334 40.73518-.6172v-70.978l-6.27185.91465a29.98433 29.98433 0 0 0 -25.52968 26.906z"
            fill="#e6e6e6" />
        <path
            d="m892.34338 200.80558c-13.10909 7.41716-38.302 10.8099-56.78238 5.5548l-6.172-32.09438h61.10278z"
            fill="#2f2e41" />
    </g>
    <path d="m40 426h201v162h-201z" fill="#e6e6e6" />
    <path d="m123.5 541h34v46h-34z" fill="#E53535" />
    <path d="m428.93606 716.81743-3.47308-2.90485.25671 1.814s1.22724.38522 3.21637 1.09085z"
        fill="none" transform="translate(-166.03071 -155.75)" />
    <path d="m488.026 430.784 5.35-14.266 49.931-28.532 33.882-7.133z" fill="#E53535" />
    <path d="m304.352 430.784-5.35-14.266-49.931-28.532-33.882-7.133z" fill="#E53535" />
    <path d="m491.593 434.35h-190.808l-16.049-74.896h222.906z" fill="#E53535" />
    <path d="m491.593 434.35h-190.808l-16.049-74.896h222.906z" opacity=".1" />
    <path d="m299.89341 429.89163h192.59109v158.10837h-192.59109z" fill="#E53535" />
    <path d="m379.18898 540.97662h34v46h-34z" fill="#3f3d56" />
    <path d="m867.543 588.19h-867.543v-2.182h867.939z" fill="#3f3d56" />
    <path d="m356.18896 462.25h80v25h-80z" fill="#fff" />
    <path d="m99.96929 462.25h80v25h-80z" fill="#fff" />
</svg>