<svg height="727.778" viewBox="0 0 735.742 727.778" width="735.742"
    xmlns="http://www.w3.org/2000/svg">
    <path
        d="m869.614 259.058h-4v-109.545a63.4 63.4 0 0 0 -63.4-63.4h-232.087a63.4 63.4 0 0 0 -63.4 63.4v600.974a63.4 63.4 0 0 0 63.4 63.4h232.086a63.4 63.4 0 0 0 63.4-63.4v-413.453h4z"
        fill="#3f3d56" transform="translate(-506.725 -86.111)" />
    <path
        d="m804.772 102.606h-30.295a22.495 22.495 0 0 1 -20.828 30.994h-132.959a22.495 22.495 0 0 1 -20.827-30.991h-28.3a47.348 47.348 0 0 0 -47.348 47.348v600.089a47.348 47.348 0 0 0 47.348 47.348h233.2a47.348 47.348 0 0 0 47.348-47.348v-600.092a47.348 47.348 0 0 0 -47.348-47.348z"
        fill="#fff" transform="translate(-506.725 -86.111)" />
    <path d="m47.161 134.488h268.567v458.802h-268.567z" fill="#e6e6e6" />
    <circle cx="181.843" cy="651.748" fill="#e6e6e6" r="26" />
    <path d="m154.177 708.867-2.97 28.713 16.831-1.98 1.98-23.762z" fill="#ffb9b9"
        transform="translate(151.95 -66.466)" />
    <g fill="#2f2e41">
        <path
            d="m156.5 470.055s-86.138 83.167-31.683 108.91h16.831s36.633-60.4 54.455-59.405l4.95 57.425-2.97 115.84 21.782.99s12.871-58.415 11.881-91.088l22.772-120.791z"
            transform="translate(105.075 -45.473)" />
        <path d="m136.723 597.769 11.881 3.96s46.534-10.891 49.5-9.9l9.213-.064-.3-23.7h-39.6z"
            transform="translate(98.117 -68.237)" />
        <path
            d="m243.272 782.368s-17.822-7.921-20.792 0-1.98 30.693-1.98 30.693a22.023 22.023 0 0 1 1.98 14.851c-1.98 7.921 7.921 11.881 20.792 7.921s12.871-13.861 12.871-13.861z"
            transform="translate(78.696 -117.194)" />
        <path
            d="m264.761 564.7s13.861-7.921 12.871 3.96a78.286 78.286 0 0 1 -5.941 22.772s12.871 33.663 0 36.633-22.772-3.96-22.772-8.911 15.842-54.454 15.842-54.454z"
            transform="translate(72.058 -66.856)" />
    </g>
    <path d="m138.31 166.927 1.981 37.624 16.831 14.849 18.812-26.732v-26.731z" fill="#ffb9b9"
        transform="translate(154.945 59.638)" />
    <path
        d="m213.405 256.39-11.334-8.422-7.477 11.392-33.663 19.8 19.8 51.484.99 50.495s-36.633 37.623-14.851 42.574 99.009 15.841 102.969 6.931-4.95-100.989-4.95-100.989l2.97-78.217-29.7-10.739z"
        fill="#E53535" transform="translate(92.721 7.798)" />
    <path
        d="m150.27 342.714s-7.921 56.1 6.931 56.1a68.2 68.2 0 0 0 25.742-4.95l-11.881-30.693 4.95-20.792z"
        fill="#ffb9b9" transform="translate(95.461 -15.819)" />
    <path
        d="m177.574 395.781 10.891 1.98s31.683-19.8 33.663-20.792-31.683-17.822-31.683-17.822l-22.772 8.911z"
        fill="#ffb9b9" transform="translate(90.929 -19.713)" />
    <path
        d="m185.913 355.253-14.3 5.595 4.4-18.466-25.742.331s-7.921 56.1 6.931 56.1a68.2 68.2 0 0 0 25.742-4.95l-.075-.194 1.065.194s31.683-19.8 33.663-20.792-31.684-17.818-31.684-17.818z"
        opacity=".1" transform="translate(95.461 -15.819)" />
    <circle cx="316.16" cy="217.066" fill="#ffb9b9" r="28.272" />
    <path
        d="m206.848 152.277-5.524-2.211s11.55-12.716 27.619-11.61l-4.52-4.976s11.048-4.423 21.091 7.187c5.28 6.1 11.388 13.277 15.2 21.358h5.916l-2.469 5.436 8.639 5.439-8.87-.977a30.082 30.082 0 0 1 -.839 14.08l.238 4.3s-10.281-15.907-10.281-18.118v5.529s-5.524-4.976-5.524-8.293l-3.013 3.87-1.511-6.091-18.58 6.081 3.013-4.976-11.55 1.659 4.52-6.081s-13.056 7.187-13.559 13.269-7.03 13.821-7.03 13.821l-3.013-5.529s-4.516-24.874 10.047-33.167z"
        fill="#2f2e41" transform="translate(84.316 32.894)" />
    <path
        d="m252.247 319.788a35.587 35.587 0 0 0 -7.921 21.782l-52.475-1.98s-13.861-1.98-13.861 7.921v9.9s6.931-2.97 10.891 0 46.534 28.713 67.326 18.812 25.742-48.514 25.742-48.514-18.811-15.842-29.702-7.921z"
        fill="#ffb9b9" transform="translate(88.532 -10.056)" />
    <path
        d="m285.1 255.678 7.921-.99s15.841 1.98 13.861 32.673-2.97 32.673-2.97 32.673-20.792-18.812-35.643-9.9z"
        fill="#E53535" transform="translate(67.565 4.549)" />
    <path
        d="m161.741 290.8h-3.96a36.678 36.678 0 0 0 -7.921 22.772 109.588 109.588 0 0 1 -3.465 26.237l31.188-5.445z"
        fill="#E53535" transform="translate(95.871 -3.837)" />
    <path d="m448.25 134.462h287.492v56.761h-287.492z" fill="#e6e6e6" />
    <path d="m569.15 282.551h275.235v-44.5h-275.235z" fill="#fff"
        transform="translate(-114.771 -97.456)" />
    <path d="m16.955 0a16.955 16.955 0 1 1 -16.955 16.955 16.955 16.955 0 0 1 16.955-16.955z"
        fill="#E53535" transform="translate(461.518 145.52)" />
    <path d="m519.017 155.84h167.335v3.686h-167.335z" fill="#e6e6e6" />
    <path d="m519.017 165.423h167.335v3.686h-167.335z" fill="#e6e6e6" />
    <path d="m448.25 215.462h287.492v56.761h-287.492z" fill="#e6e6e6" />
    <path d="m569.15 282.551h275.235v-44.5h-275.235z" fill="#fff"
        transform="translate(-114.771 -16.456)" />
    <circle cx="478.473" cy="243.475" fill="#E53535" r="16.955" />
    <path d="m519.017 236.84h167.335v3.686h-167.335z" fill="#e6e6e6" />
    <path d="m519.017 246.423h167.335v3.686h-167.335z" fill="#e6e6e6" />
    <path d="m448.25 296.462h287.492v56.761h-287.492z" fill="#e6e6e6" />
    <path d="m569.15 282.551h275.235v-44.5h-275.235z" fill="#fff"
        transform="translate(-114.771 64.544)" />
    <circle cx="478.473" cy="324.475" fill="#E53535" r="16.955" />
    <path d="m519.017 317.84h167.335v3.686h-167.335z" fill="#e6e6e6" />
    <path d="m519.017 327.423h167.335v3.686h-167.335z" fill="#e6e6e6" />
</svg>