<svg height="47" viewBox="0 0 47 47" width="47" xmlns="http://www.w3.org/2000/svg"><g><path d="m0 0h47v47h-47z" fill="none"/><g fill="#e53535"><path d="m40.762 22.86a2.81 2.81 0 0 1 .718 1.88v1.88a2.821 2.821 0 0 1 -1.967 2.689 6.581 6.581 0 0 0 -13.007.131h-7.653a6.581 6.581 0 0 0 -13.027 0h-1.006a2.82 2.82 0 0 1 -2.82-2.82v-1.88a2.82 2.82 0 0 1 2.82-2.82h19.9a2.816 2.816 0 0 1 -.161-.94v-13.16a2.82 2.82 0 0 1 3.226-2.791l9.757 1.418a2.82 2.82 0 0 1 2.333 2.118l.048.2h-5.023a2.82 2.82 0 0 0 -2.82 2.82v3.76a2.82 2.82 0 0 0 2.82 2.82h6.58v2.82a2.81 2.81 0 0 1 -.718 1.875zm-.377-12.22 1.015 4.124a2.83 2.83 0 0 1 .081.673v.843h-6.581a.94.94 0 0 1 -.94-.94v-3.76a.94.94 0 0 1 .94-.94z" transform="translate(1.76 4.4)"/><path d="m30.38 25.4a4.7 4.7 0 1 0 -4.7-4.7 4.7 4.7 0 0 0 4.7 4.7zm-20.68 0a4.7 4.7 0 1 0 -4.7-4.7 4.7 4.7 0 0 0 4.7 4.7z" transform="translate(4.4 14.08)"/><path d="m22.68 15.64h-20.68v-2.82a2.82 2.82 0 0 1 2.82-2.82h17.86z" transform="translate(1.76 8.8)"/></g></g></svg>