<svg height="42.637" viewBox="0 0 42.637 42.637" width="42.637" xmlns="http://www.w3.org/2000/svg"><g><path d="m0 0h42.637v42.637h-42.637z" fill="none"/><g fill="#e53535"><path d="m33.7 14.822h-4.265a4.264 4.264 0 1 0 0 8.527h4.265v2.558a4.264 4.264 0 0 1 -4.264 4.264h-23.878a2.558 2.558 0 0 1 -2.558-2.558v-18.76a.853.853 0 0 1 .853-.853h25.582a4.264 4.264 0 0 1 4.265 4.264z" transform="translate(2.116 5.644)"/><path d="m3.036 8.536a4.265 4.265 0 0 1 4.202-3.536h18.762a4.265 4.265 0 0 1 4.188 3.461 6.026 6.026 0 0 0 -.777-.05h-25.584a2.557 2.557 0 0 0 -.791.125zm32.342 10.108v5.116h-5.969a2.558 2.558 0 1 1 0-5.116z" transform="translate(2.142 3.527)"/></g></g></svg>