<svg height="35.936"  width="35.936" xmlns="http://www.w3.org/2000/svg"><path d="m0 0h35.936v35.936h-35.936z" fill="none"/><g fill="#e53535"><path d="m24.077 29.311a5.031 5.031 0 0 1 -4.547 2.875h-11.499a5.031 5.031 0 0 1 -5.031-5.031v-15.812a5.032 5.032 0 0 1 4.347-4.985 6.543 6.543 0 0 0 -.035.673v15.812a6.468 6.468 0 0 0 6.468 6.468zm.484-27.311a2.319 2.319 0 0 1 .484.461l5.266 6.726h-4.966a.773.773 0 0 1 -.783-.763z" transform="translate(1.312 .875)"/><path d="m21.374 2v6.468a2.156 2.156 0 0 0 2.156 2.156h5.031v12.219a5.031 5.031 0 0 1 -5.031 5.031h-11.5a5.031 5.031 0 0 1 -5.03-5.031v-15.812a5.031 5.031 0 0 1 5.031-5.031zm1.8 11.129a3.681 3.681 0 0 0 -4.675-.421 3.681 3.681 0 0 0 -4.675.421 3.635 3.635 0 0 0 0 5.162l3.276 3.258a1.982 1.982 0 0 0 2.792 0l3.278-3.258a3.635 3.635 0 0 0 .004-5.162zm-4.292 7.4a.545.545 0 0 1 -.766 0l-3.278-3.258a2.2 2.2 0 0 1 0-3.123 2.241 2.241 0 0 1 3.154 0l.507.5.507-.5a2.241 2.241 0 0 1 3.154 0 2.2 2.2 0 0 1 0 3.123z" transform="translate(3.062 .875)"/></g></svg>