<svg height="32.252" viewBox="0 0 32.252 32.252" width="32.252" xmlns="http://www.w3.org/2000/svg"><g><path d="m0 0h32.252v32.252h-32.252z" fill="none"/><g fill="#e53535"><path d="m29.092 20.061h-27.092v-16.126a1.935 1.935 0 0 1 1.935-1.935h23.222a1.935 1.935 0 0 1 1.935 1.935zm-14.002-4.061a.645.645 0 0 0 .91 0l2.58-2.58a.645.645 0 0 0 -.912-.912l-1.479 1.479v-4.887a.645.645 0 0 0 -1.29 0v4.893l-1.477-1.483a.645.645 0 0 0 -.912.912z" transform="translate(.58 .58)"/><path d="m29.092 17v3.225a4.515 4.515 0 0 1 -4.515 4.515h-18.062a4.515 4.515 0 0 1 -4.515-4.515v-3.225z" fill-rule="evenodd" transform="translate(.58 4.932)"/></g></g></svg>